<svg width="78" height="78" viewBox="0 0 78 78" fill="none" xmlns="http://www.w3.org/2000/svg">
<circle cx="38.9642" cy="38.9643" r="37.9839" fill="#FBE9D1" stroke="#FD9651"/>
<path d="M75.5067 38.9641C75.5067 18.7824 59.1459 2.42179 38.9641 2.42179C18.7824 2.42181 2.42181 18.7824 2.42179 38.9641C2.42179 59.1459 18.7824 75.5067 38.9641 75.5067V77.9285L38.7122 77.9276C17.3088 77.792 0 60.3994 0 38.9641C2.45803e-05 17.4449 17.4449 2.45867e-05 38.9641 0C60.4835 0 77.9284 17.4448 77.9285 38.9641L77.9276 39.2161C77.792 60.6195 60.3994 77.9285 38.9641 77.9285V75.5067C59.146 75.5067 75.5067 59.146 75.5067 38.9641Z" fill="#FD9651"/>
<path d="M32.5421 16.2827C34.3044 16.2827 35.8023 16.5324 37.0358 17.0317C38.2694 17.531 39.4736 18.2359 40.6484 19.1464C40.9714 19.4107 41.2505 19.5429 41.4854 19.5429C42.0728 19.5429 42.4547 18.6617 42.6309 16.8995H43.6441C43.5267 18.8086 43.4679 22.1862 43.4679 27.0323H42.4547C42.1316 25.1232 41.8379 23.7575 41.5735 22.9351C41.3092 22.0834 40.8686 21.2757 40.2519 20.5121C39.3708 19.3666 38.24 18.5149 36.8596 17.9569C35.5085 17.3694 34.04 17.0757 32.454 17.0757C30.545 17.0757 28.8708 17.7072 27.4317 18.9701C26.0219 20.2331 24.9205 22.0393 24.1275 24.389C23.3345 26.7092 22.938 29.4407 22.938 32.5833C22.938 35.7847 23.3639 38.5308 24.2156 40.8217C25.0674 43.1126 26.2422 44.8601 27.7401 46.0643C29.2673 47.2391 30.9855 47.8265 32.8946 47.8265C34.3631 47.8265 35.7876 47.5475 37.168 46.9895C38.5484 46.4314 39.6351 45.5944 40.4281 44.4783C41.0155 43.6559 41.4414 42.7748 41.7057 41.835C41.97 40.8951 42.2197 39.456 42.4547 37.5175H43.4679C43.4679 42.5692 43.5267 46.0937 43.6441 48.0909H42.6309C42.5428 47.151 42.4106 46.4902 42.2344 46.1084C42.0875 45.6972 41.8672 45.4916 41.5735 45.4916C41.3386 45.4916 41.0302 45.6091 40.6484 45.844C39.3267 46.7839 38.0638 47.5035 36.8596 48.0028C35.6554 48.4727 34.2016 48.7076 32.4981 48.7076C29.7079 48.7076 27.2555 48.0762 25.1408 46.8133C23.0555 45.5503 21.4255 43.7294 20.2506 41.3504C19.1052 38.942 18.5325 36.0784 18.5325 32.7595C18.5325 29.5288 19.1199 26.6652 20.2947 24.1687C21.4989 21.6722 23.1583 19.7338 25.273 18.3534C27.417 16.9729 29.8401 16.2827 32.5421 16.2827Z" fill="#FD9651"/>
<path d="M44.417 49.0457V56.9757C44.417 58.0918 44.5345 58.8995 44.7695 59.3988C45.0044 59.8981 45.4156 60.2359 46.003 60.4121C46.5904 60.5883 47.545 60.7058 48.8666 60.7645V61.6456C47.3394 61.5575 45.1806 61.5135 42.3905 61.5135C39.8646 61.5135 37.9849 61.5575 36.7513 61.6456V60.7645C37.8087 60.7058 38.5723 60.5883 39.0422 60.4121C39.5415 60.2359 39.8793 59.8981 40.0555 59.3988C40.2317 58.8995 40.3198 58.0918 40.3198 56.9757V35.1242C40.3198 34.0081 40.2317 33.2004 40.0555 32.7011C39.8793 32.2018 39.5415 31.8641 39.0422 31.6878C38.5723 31.5116 37.8087 31.3941 36.7513 31.3354V30.4543C37.9849 30.5424 39.7765 30.5864 42.1261 30.5864L46.8841 30.5424C47.4422 30.513 48.0736 30.4983 48.7785 30.4983C52.2149 30.4983 54.8435 31.2913 56.6645 32.8773C58.4854 34.434 59.3959 36.534 59.3959 39.1773C59.3959 40.7927 59.0288 42.3493 58.2945 43.8472C57.5896 45.3157 56.3708 46.5493 54.6379 47.5479C52.9344 48.5464 50.6582 49.0457 47.8093 49.0457H44.417ZM47.6771 31.3354C46.7666 31.3354 46.0764 31.4382 45.6065 31.6438C45.166 31.8494 44.8576 32.2165 44.6814 32.7452C44.5051 33.2738 44.417 34.0668 44.417 35.1242V48.1646H47.3687C50.247 48.1646 52.2295 47.401 53.3162 45.8737C54.4323 44.3171 54.9904 42.2465 54.9904 39.6619C54.9904 36.813 54.4176 34.713 53.2722 33.3619C52.1561 32.0109 50.2911 31.3354 47.6771 31.3354Z" fill="#FD9651"/>
</svg>
