<svg preserveAspectRatio="none" width="100%" height="100%" overflow="visible" style="display: block;" viewBox="0 0 75.8263 75.8263" fill="none" xmlns="http://www.w3.org/2000/svg">
<g id="Frame 10">
<rect width="75.8263" height="75.8263" rx="37.9132" fill="var(--fill-0, white)"/>
<path id="Vector" d="M46.7411 41.7557C46.262 41.5154 43.9049 40.357 43.4661 40.1957C43.0256 40.0359 42.7062 39.9569 42.3851 40.4377C42.0673 40.9168 41.1477 41.9961 40.8686 42.3156C40.5895 42.6366 40.3088 42.6753 39.8296 42.4366C39.3505 42.1946 37.8049 41.6896 35.9738 40.0569C34.5492 38.7856 33.5861 37.2158 33.3069 36.7351C33.0278 36.2559 33.2779 35.9962 33.5167 35.7574C33.7329 35.5428 33.9974 35.1976 34.2362 34.9185C34.475 34.6394 34.5557 34.4377 34.717 34.1166C34.8767 33.7972 34.7977 33.5181 34.6767 33.2777C34.5557 33.0373 33.5973 30.677 33.1989 29.7171C32.8084 28.783 32.4132 28.9104 32.1195 28.8943C31.8132 28.8822 31.5066 28.8768 31.1999 28.8782C30.8805 28.8782 30.361 28.9976 29.9222 29.4783C29.4834 29.9575 28.2443 31.1175 28.2443 33.4778C28.2443 35.8364 29.9625 38.1161 30.2013 38.4371C30.4401 38.7582 33.5828 43.5998 38.3922 45.6761C39.536 46.1698 40.4282 46.465 41.1251 46.6845C42.2738 47.0507 43.3192 46.9991 44.1437 46.8748C45.0649 46.7377 46.9799 45.7148 47.38 44.5952C47.7801 43.4755 47.7801 42.5156 47.6591 42.3156C47.5397 42.1155 47.2219 41.9961 46.7411 41.7557ZM37.9937 53.6992H37.9872C35.1312 53.6994 32.3278 52.9316 29.8706 51.476L29.2881 51.1308L23.2527 52.7151L24.8628 46.8297L24.4837 46.2263C22.8872 43.6841 22.0426 40.7421 22.0475 37.7402C22.0492 28.9475 29.2043 21.7941 38.0001 21.7941C42.2593 21.7941 46.2636 23.4558 49.274 26.4695C50.7598 27.948 51.9373 29.7067 52.7385 31.6435C53.5397 33.5804 53.9485 35.657 53.9414 37.7531C53.9366 46.5457 46.7831 53.6992 37.9937 53.6992ZM51.5666 24.1802C49.7887 22.3912 47.6737 20.9727 45.3439 20.0068C43.014 19.0409 40.5158 18.5467 37.9937 18.5529C27.4183 18.5529 18.8112 27.16 18.8064 37.7386C18.8064 41.1201 19.6889 44.421 21.3683 47.3298L18.645 57.2727L28.8171 54.6043C31.6305 56.1356 34.7824 56.9387 37.9856 56.9404H37.9937C48.5674 56.9404 57.1761 48.3333 57.181 37.7531C57.1888 35.2319 56.6967 32.7341 55.733 30.4044C54.7693 28.0746 53.3532 25.9591 51.5666 24.1802Z" fill="var(--fill-0, #FD9651)"/>
</g>
</svg>
