<svg preserveAspectRatio="none" width="100%" height="100%" overflow="visible" style="display: block;" viewBox="0 0 75.8263 75.8263" fill="none" xmlns="http://www.w3.org/2000/svg">
<g id="Frame 11">
<rect width="75.8263" height="75.8263" rx="37.9132" fill="var(--fill-0, white)"/>
<path id="Vector" d="M48.3731 23.8596C46.8191 22.0849 45.9625 19.8061 45.9628 17.4471H38.9363V45.644C38.8832 47.1703 38.2394 48.6162 37.1406 49.6768C36.0418 50.7375 34.5739 51.3298 33.0468 51.3289C29.8178 51.3289 27.1345 48.6911 27.1345 45.4166C27.1345 41.5054 30.9092 38.572 34.7977 39.7772V32.5916C26.9526 31.5456 20.0853 37.6397 20.0853 45.4166C20.0853 52.9888 26.3614 58.3781 33.024 58.3781C40.1642 58.3781 45.9628 52.5795 45.9628 45.4166V31.1135C48.812 33.1597 52.2329 34.2576 55.7407 34.2515V27.2251C55.7407 27.2251 51.4657 27.4297 48.3731 23.8596Z" fill="var(--fill-0, #FD9651)"/>
</g>
</svg>
