<svg preserveAspectRatio="none" width="100%" height="100%" overflow="visible" style="display: block;" viewBox="0 0 75.8263 75.8263" fill="none" xmlns="http://www.w3.org/2000/svg">
<g id="Frame 8">
<rect width="75.8263" height="75.8263" rx="37.9132" fill="var(--fill-0, white)"/>
<path id="Vector" d="M20.0022 55.8238C18.7708 55.8238 17.717 55.3857 16.8409 54.5096C15.9647 53.6334 15.5259 52.5789 15.5244 51.346V24.4796C15.5244 23.2483 15.9632 22.1945 16.8409 21.3184C17.7185 20.4422 18.7723 20.0034 20.0022 20.0019H55.824C57.0554 20.0019 58.1099 20.4407 58.9875 21.3184C59.8652 22.196 60.3032 23.2498 60.3018 24.4796V51.346C60.3018 52.5774 59.8637 53.6319 58.9875 54.5096C58.1114 55.3872 57.0569 55.8253 55.824 55.8238H20.0022ZM37.9131 40.1517L20.0022 28.9574V51.346H55.824V28.9574L37.9131 40.1517ZM37.9131 35.674L55.824 24.4796H20.0022L37.9131 35.674ZM20.0022 28.9574V24.4796V51.346V28.9574Z" fill="var(--fill-0, #FD9651)"/>
</g>
</svg>
