<svg preserveAspectRatio="none" width="100%" height="100%" overflow="visible" style="display: block;" viewBox="0 0 75.8263 75.8263" fill="none" xmlns="http://www.w3.org/2000/svg">
<g id="Frame 12">
<rect width="75.8263" height="75.8263" rx="37.9132" fill="var(--fill-0, white)"/>
<path id="Vector" d="M37.915 32.2968C36.4255 32.2968 34.9971 32.8884 33.944 33.9416C32.8908 34.9948 32.2991 36.4232 32.2991 37.9126C32.2991 39.402 32.8908 40.8304 33.944 41.8836C34.9971 42.9368 36.4255 43.5284 37.915 43.5284C39.4044 43.5284 40.8328 42.9368 41.886 41.8836C42.9391 40.8304 43.5308 39.402 43.5308 37.9126C43.5308 36.4232 42.9391 34.9948 41.886 33.9416C40.8328 32.8884 39.4044 32.2968 37.915 32.2968ZM37.915 28.5529C40.3973 28.5529 42.778 29.539 44.5333 31.2943C46.2886 33.0496 47.2747 35.4302 47.2747 37.9126C47.2747 40.395 46.2886 42.7756 44.5333 44.5309C42.778 46.2862 40.3973 47.2723 37.915 47.2723C35.4326 47.2723 33.0519 46.2862 31.2966 44.5309C29.5413 42.7756 28.5552 40.395 28.5552 37.9126C28.5552 35.4302 29.5413 33.0496 31.2966 31.2943C33.0519 29.539 35.4326 28.5529 37.915 28.5529ZM50.0826 28.0849C50.0826 28.7055 49.8361 29.3006 49.3973 29.7395C48.9584 30.1783 48.3633 30.4248 47.7427 30.4248C47.1221 30.4248 46.5269 30.1783 46.0881 29.7395C45.6493 29.3006 45.4027 28.7055 45.4027 28.0849C45.4027 27.4643 45.6493 26.8691 46.0881 26.4303C46.5269 25.9915 47.1221 25.7449 47.7427 25.7449C48.3633 25.7449 48.9584 25.9915 49.3973 26.4303C49.8361 26.8691 50.0826 27.4643 50.0826 28.0849ZM37.915 22.937C33.2838 22.937 32.5275 22.9501 30.3729 23.0456C28.9053 23.1148 27.9206 23.3114 27.0071 23.6671C26.243 23.9486 25.5521 24.3983 24.9854 24.9831C24.4 25.5495 23.9496 26.2405 23.6676 27.0048C23.3119 27.922 23.1153 28.9048 23.0479 30.3705C22.9506 32.4371 22.9375 33.1597 22.9375 37.9126C22.9375 42.5457 22.9506 43.3001 23.0461 45.4547C23.1153 46.9204 23.3119 47.9069 23.6657 48.8186C23.9839 49.6329 24.3583 50.2188 24.9798 50.8403C25.6106 51.4692 26.1966 51.8455 27.0015 52.1563C27.9262 52.5138 28.9109 52.7122 30.371 52.7796C32.4376 52.877 33.1602 52.8882 37.9131 52.8882C42.5462 52.8882 43.3006 52.8751 45.4552 52.7796C46.919 52.7103 47.9037 52.5138 48.8191 52.16C49.5831 51.8785 50.2741 51.4287 50.8408 50.844C51.4716 50.215 51.8479 49.6291 52.1586 48.8223C52.5143 47.9013 52.7127 46.9167 52.7801 45.4528C52.8774 43.388 52.8887 42.6636 52.8887 37.9126C52.8887 33.2814 52.8756 32.5251 52.7801 30.3705C52.7108 28.9067 52.5124 27.9183 52.1586 27.0048C51.8771 26.2407 51.4274 25.5497 50.8426 24.9831C50.2761 24.3976 49.5852 23.9472 48.8209 23.6652C47.9037 23.3095 46.919 23.113 45.4552 23.0456C43.3904 22.9482 42.6678 22.937 37.9131 22.937M37.9131 19.1931C42.9992 19.1931 43.6338 19.2118 45.6311 19.3054C47.6229 19.399 48.9819 19.7116 50.1743 20.1759C51.4098 20.6514 52.4506 21.2953 53.4914 22.3342C54.4437 23.2697 55.1803 24.4018 55.6498 25.6513C56.1122 26.8438 56.4267 28.2028 56.5203 30.1964C56.6082 32.1919 56.6326 32.8265 56.6326 37.9126C56.6326 42.9987 56.6138 43.6333 56.5203 45.6288C56.4267 47.6243 56.1122 48.9796 55.6498 50.1739C55.1803 51.4234 54.4437 52.5555 53.4914 53.491C52.556 54.4432 51.4239 55.1798 50.1743 55.6493C48.9819 56.1117 47.6229 56.4262 45.6311 56.5198C43.6338 56.6077 42.9992 56.6321 37.9131 56.6321C32.827 56.6321 32.1924 56.6134 30.195 56.5198C28.2033 56.4262 26.8461 56.1117 25.6518 55.6493C24.4022 55.1798 23.2702 54.4432 22.3347 53.491C21.3825 52.5555 20.6459 51.4234 20.1764 50.1739C19.7121 48.9814 19.3995 47.6224 19.3059 45.6288C19.2161 43.6333 19.1936 42.9987 19.1936 37.9126C19.1936 32.8265 19.2123 32.1919 19.3059 30.1964C19.3995 28.2009 19.7121 26.8456 20.1764 25.6513C20.6459 24.4018 21.3825 23.2697 22.3347 22.3342C23.2702 21.382 24.4022 20.6454 25.6518 20.1759C26.8443 19.7116 28.2014 19.399 30.195 19.3054C32.1943 19.2175 32.8289 19.1931 37.915 19.1931" fill="var(--fill-0, #FD9651)"/>
</g>
</svg>
