<svg width="36" height="34" viewBox="0 0 36 34" fill="none" xmlns="http://www.w3.org/2000/svg">
<path fill-rule="evenodd" clip-rule="evenodd" d="M15.9395 12.3143C12.608 9.57575 9.90847 6.31444 7.8799 2.51477C7.47419 1.75795 6.53015 1.46927 5.76554 1.87498C5.00873 2.2807 4.71999 3.22478 5.1257 3.98939C7.35713 8.14796 10.3064 11.7214 13.9578 14.7252C14.621 15.2714 15.6119 15.1777 16.158 14.5145C16.7042 13.8436 16.6027 12.8605 15.9395 12.3143Z" fill="white"/>
<path fill-rule="evenodd" clip-rule="evenodd" d="M14.163 1.64875C14.3347 4.80084 14.4907 7.95292 14.6858 11.105C14.7404 11.9633 15.4816 12.6186 16.3399 12.564C17.1981 12.5094 17.8535 11.7682 17.7989 10.91C17.6038 7.76567 17.4477 4.62141 17.2761 1.46932C17.2293 0.613417 16.4881 -0.0458728 15.6298 0.00250079C14.7716 0.0508744 14.1084 0.788171 14.163 1.64875Z" fill="white"/>
<path fill-rule="evenodd" clip-rule="evenodd" d="M25.7462 2.28858C23.7488 5.30023 21.4863 8.07778 19.208 10.8866C18.6619 11.5576 18.7633 12.5407 19.4342 13.079C20.1052 13.6252 21.0884 13.5237 21.6267 12.8527C23.9674 9.97373 26.2924 7.11031 28.3522 4.01284C28.8281 3.29503 28.6252 2.3276 27.9074 1.85166C27.1974 1.37573 26.2221 1.57078 25.7462 2.28858Z" fill="white"/>
<path fill-rule="evenodd" clip-rule="evenodd" d="M33.4833 13.4847C28.0686 13.7266 22.3183 13.7344 16.9036 13.3911C16.0454 13.3443 15.3042 13.9918 15.2495 14.8579C15.1949 15.7161 15.8503 16.4573 16.7086 16.512C22.2325 16.8552 28.0998 16.8474 33.6238 16.6056C34.482 16.5666 35.1529 15.8332 35.1139 14.9749C35.0749 14.1167 34.3415 13.4457 33.4833 13.4847Z" fill="white"/>
<path fill-rule="evenodd" clip-rule="evenodd" d="M13.9538 14.4755C17.2931 18.5638 20.7495 22.5742 23.847 26.8498C24.3541 27.5442 25.3294 27.7002 26.0316 27.193C26.726 26.6859 26.882 25.7106 26.3749 25.0162C23.2384 20.6938 19.743 16.6367 16.3647 12.5015C15.8185 11.8383 14.8354 11.7369 14.1722 12.2831C13.5012 12.8292 13.4076 13.8123 13.9538 14.4755Z" fill="white"/>
<path fill-rule="evenodd" clip-rule="evenodd" d="M14.965 15.6618C15.8389 19.9218 16.0807 23.9945 16.1432 28.3091C16.151 29.1674 16.861 29.854 17.7192 29.8462C18.5853 29.8305 19.2718 29.1283 19.2562 28.2623C19.1938 23.7448 18.9364 19.4926 18.0235 15.0298C17.8441 14.1872 17.0248 13.641 16.1744 13.8204C15.3318 13.9921 14.7856 14.8191 14.965 15.6618Z" fill="white"/>
<path fill-rule="evenodd" clip-rule="evenodd" d="M15.1059 15.3186C12.578 20.3745 11.275 25.992 8.56764 30.9386C8.15412 31.6876 8.43495 32.6395 9.19176 33.053C9.94857 33.4665 10.8927 33.1856 11.3062 32.4366C14.0292 27.4588 15.3477 21.81 17.899 16.7152C18.2813 15.9428 17.9692 15.0065 17.2046 14.6164C16.4322 14.2341 15.496 14.5462 15.1059 15.3186Z" fill="white"/>
<path fill-rule="evenodd" clip-rule="evenodd" d="M16.4971 14.1713C11.4647 15.0607 6.44005 15.4664 1.37643 16.0672C0.518184 16.1686 -0.0903873 16.9411 0.0110412 17.7993C0.11247 18.6576 0.884959 19.2661 1.7432 19.1647C6.86144 18.5639 11.9485 18.1426 17.0433 17.2453C17.8859 17.0893 18.4555 16.2779 18.3072 15.4352C18.1512 14.5848 17.3475 14.0152 16.4971 14.1713Z" fill="white"/>
<path fill-rule="evenodd" clip-rule="evenodd" d="M19.9988 11.7998C18.9611 11.753 17.978 11.6828 16.9637 11.5345C16.1055 11.4097 15.3174 12.0027 15.1926 12.8531C15.0678 13.7036 15.6607 14.4994 16.5111 14.6242C17.6346 14.7881 18.7192 14.8661 19.8583 14.9129C20.7165 14.9519 21.4499 14.2887 21.4811 13.4227C21.5201 12.5644 20.857 11.8389 19.9988 11.7998Z" fill="white"/>
</svg>
