<svg width="31" height="33" viewBox="0 0 31 33" fill="none" xmlns="http://www.w3.org/2000/svg">
<path fill-rule="evenodd" clip-rule="evenodd" d="M3.75817 14.3768C5.20837 13.86 6.73445 13.1732 7.91129 12.1789C9.30899 10.9979 9.87742 9.47691 10.2591 7.87585C10.7492 5.81889 10.945 3.62772 11.5393 1.56742C11.7593 0.802312 12.1827 0.513098 12.3644 0.384747C12.8237 0.0605336 13.2879 -0.0261284 13.7246 0.00637626C14.2422 0.0438816 14.9531 0.23973 15.4207 1.10735C15.4874 1.23154 15.574 1.42074 15.6324 1.67995C15.6749 1.86997 15.7024 2.46421 15.7474 2.70925C15.8599 3.31267 15.9541 3.91611 16.0424 4.52286C16.3366 6.54232 16.5059 8.25754 17.4352 10.1128C18.6962 12.6315 19.9597 14.1726 21.6733 14.8552C23.3302 15.5152 25.3113 15.3911 27.8425 14.8735C28.0833 14.8152 28.3217 14.7652 28.5576 14.7243C29.6735 14.5293 30.7404 15.2619 30.9596 16.3737C31.1788 17.4847 30.4695 18.5674 29.3635 18.8116C29.1327 18.8624 28.9051 18.9107 28.6801 18.9549C25.2596 19.8017 21.2999 22.8238 18.9987 25.47C18.2894 26.286 17.251 28.5671 16.1916 30.0223C15.4099 31.0958 14.5314 31.8034 13.7938 32.0535C13.2995 32.2218 12.8828 32.196 12.5386 32.111C12.0385 31.9876 11.6235 31.7167 11.3051 31.2858C11.1318 31.05 10.9709 30.7341 10.8942 30.3307C10.8575 30.1365 10.8534 29.6431 10.8542 29.4198C10.6383 28.6772 10.3741 27.952 10.1816 27.2028C9.72238 25.415 8.8214 24.2832 7.75125 22.788C6.75027 21.3886 5.67516 20.5093 4.0991 19.8075C3.89407 19.7575 2.23966 19.3525 1.65541 19.1199C0.801952 18.779 0.395205 18.2081 0.247684 17.9006C-0.00318526 17.3788 -0.0289995 16.923 0.0210077 16.5429C0.0951849 15.982 0.346889 15.5019 0.79362 15.1144C1.07033 14.8735 1.48372 14.6393 2.03714 14.5251C2.4647 14.4359 3.59898 14.3843 3.75817 14.3768ZM13.4637 11.463C13.5404 11.6338 13.6221 11.8056 13.7088 11.9789C15.5557 15.6678 17.621 17.7272 20.1314 18.7266L20.2156 18.7591C18.5361 20.0059 17.0159 21.3994 15.8541 22.7355C15.3757 23.2855 14.7423 24.4282 14.058 25.6C13.4362 23.5789 12.4194 22.1504 11.1409 20.3626C10.1641 18.9983 9.14063 17.9715 7.88295 17.1347C8.85893 16.6338 9.78988 16.047 10.6008 15.3619C11.951 14.2209 12.8436 12.899 13.4637 11.463Z" fill="white"/>
</svg>
