<svg width="35" height="37" viewBox="0 0 35 37" fill="none" xmlns="http://www.w3.org/2000/svg">
<path fill-rule="evenodd" clip-rule="evenodd" d="M13.5044 7.38944C13.4039 6.79323 13.3282 6.20377 13.2793 5.61426C13.2056 4.72998 13.2511 3.83894 13.225 2.95467C13.2136 2.57952 13.1687 1.60147 13.1868 1.46079C13.3509 0.234859 14.3404 0.0472619 14.6298 0.0137666C14.7698 -0.00633057 16.2074 -0.167036 16.5176 1.42734C16.8981 3.37677 17.02 5.33957 16.8854 7.2622C17.1996 8.89677 17.7368 10.5246 18.4463 11.9984C21.2693 17.8601 26.6486 18.4295 32.4768 18.3759C33.3731 18.3625 34.1174 19.0659 34.1643 19.9569C34.2112 20.8546 33.544 21.6317 32.6516 21.712C29.3939 22.0269 23.6139 24.6396 21.6156 27.3594C21.1975 27.9288 20.9544 29.3021 20.6328 30.6487C20.184 32.5177 19.6501 34.3666 19.0519 35.1437C18.9621 35.2643 17.8708 36.4969 17.5452 36.6778C16.7628 37.1066 16.1364 36.8586 15.7807 36.6309C15.425 36.4031 15.0224 35.9543 14.8616 35.2107C14.6934 34.4336 14.8355 32.8392 14.8093 32.4975C14.7142 31.2582 14.4664 28.8265 13.9606 26.7363C13.6879 25.6109 13.3972 24.5725 12.9162 24.0567C11.1356 22.1475 8.28847 22.4289 5.89087 22.7437C5.61554 22.7772 5.34021 22.8174 5.06555 22.8509C4.0895 23.139 3.05313 23.3533 1.95783 23.4806C0.303831 23.6749 0.0318671 22.1542 0.0171291 22.0537C-0.0136866 21.8326 -0.128253 20.6938 1.11844 20.2383C1.25443 20.1914 2.25796 19.9703 2.6445 19.8832C3.18311 19.7626 3.72773 19.6689 4.27437 19.5818C9.92101 17.8266 12.9879 12.8961 13.5044 7.38944ZM15.4424 13.479C17.574 17.8869 20.809 20.0172 24.6436 20.9819H24.6429C22.2487 22.2346 20.0708 23.8022 18.9165 25.3765C18.4784 25.9727 18.0765 27.1718 17.714 28.5183C17.5178 27.2656 17.2525 25.9324 16.9021 24.7936C16.5035 23.494 15.9669 22.4155 15.368 21.7724C14.2118 20.5331 12.7607 19.8431 11.2005 19.5014C13.0682 17.8467 14.4844 15.7834 15.4424 13.479Z" fill="white"/>
</svg>
